<?xml version="1.0" encoding="utf-8"?>
<!-- Generator: Adobe Illustrator 16.0.0, SVG Export Plug-In . SVG Version: 6.00 Build 0)  -->
<!DOCTYPE svg PUBLIC "-//W3C//DTD SVG 1.1//EN" "http://www.w3.org/Graphics/SVG/1.1/DTD/svg11.dtd">
<svg version="1.1" id="Layer_1" xmlns="http://www.w3.org/2000/svg" xmlns:xlink="http://www.w3.org/1999/xlink" x="0px" y="0px"
	 width="200px" height="18.666px" viewBox="0 0 200 18.666" enable-background="new 0 0 200 18.666" xml:space="preserve">
<path fill="#FFFFFF" d="M8.599,14.69c-0.935,0-1.629-0.073-2.083-0.22c-0.454-0.147-0.859-0.401-1.218-0.764
	c-0.332-0.323-0.565-0.689-0.701-1.098c-0.136-0.409-0.204-0.983-0.204-1.724v-5.58h2.103v5.516c0,0.55,0.026,0.936,0.078,1.159
	s0.142,0.403,0.269,0.539c0.2,0.222,0.445,0.379,0.735,0.473c0.291,0.094,0.692,0.141,1.205,0.141h2.477v1.558H8.599z"/>
<path fill="#FFFFFF" d="M16.921,6.979h-2.437v2.771h2.565c0.635,0,1.107-0.114,1.416-0.342s0.463-0.575,0.463-1.044
	c0-0.502-0.151-0.858-0.453-1.069C18.174,7.084,17.656,6.979,16.921,6.979z M12.382,5.306h4.566c0.771,0,1.386,0.037,1.844,0.111
	c0.458,0.075,0.823,0.193,1.096,0.354c0.454,0.272,0.797,0.629,1.031,1.069c0.234,0.44,0.351,0.948,0.351,1.522
	c0,0.563-0.095,1.044-0.286,1.446c-0.191,0.402-0.481,0.735-0.871,0.999c-0.327,0.218-0.702,0.372-1.126,0.463
	c-0.424,0.092-1.074,0.138-1.949,0.138h-2.552v3.281h-2.103V5.306z"/>
<path fill="#FFFFFF" d="M30.207,6.908c-0.871,0-1.498,0.26-1.881,0.778c-0.383,0.52-0.575,1.373-0.575,2.561
	c0,1.03,0.184,1.756,0.551,2.177c0.368,0.422,1.002,0.632,1.905,0.632h3.457v1.635h-3.559c-0.785,0-1.402-0.063-1.851-0.188
	c-0.449-0.125-0.871-0.337-1.266-0.635c-0.513-0.383-0.897-0.883-1.153-1.497c-0.256-0.615-0.384-1.351-0.384-2.206
	c0-1.66,0.383-2.885,1.15-3.674c0.767-0.79,1.955-1.185,3.566-1.185h3.498v1.603H30.207z"/>
<path fill="#FFFFFF" d="M39.554,6.729c-0.901,0-1.576,0.264-2.022,0.791c-0.446,0.528-0.669,1.326-0.669,2.395
	c0,1.157,0.217,2.006,0.649,2.544c0.433,0.539,1.113,0.808,2.042,0.808c0.916,0,1.594-0.267,2.036-0.801s0.663-1.356,0.663-2.468
	c0-1.115-0.221-1.938-0.663-2.471S40.469,6.729,39.554,6.729z M34.563,9.902c0-1.613,0.411-2.813,1.234-3.601
	c0.823-0.788,2.075-1.182,3.757-1.182c1.696,0,2.95,0.398,3.764,1.194c0.813,0.796,1.221,2.023,1.221,3.684s-0.407,2.89-1.221,3.69
	c-0.814,0.8-2.068,1.2-3.764,1.2c-1.713,0-2.974-0.402-3.781-1.207C34.966,12.877,34.563,11.617,34.563,9.902z"/>
<polygon fill="#FFFFFF" points="45.981,5.306 49.07,5.306 51.622,12.507 54.174,5.306 57.25,5.306 57.25,14.69 55.188,14.69 
	55.358,7.381 52.792,14.69 50.561,14.69 47.914,7.304 48.125,14.69 45.981,14.69 "/>
<polygon fill="#FFFFFF" points="59.318,5.306 62.408,5.306 64.959,12.507 67.511,5.306 70.587,5.306 70.587,14.69 68.525,14.69 
	68.695,7.381 66.13,14.69 63.898,14.69 61.25,7.304 61.461,14.69 59.318,14.69 "/>
<path fill="#FFFFFF" d="M76.776,6.94c-0.761,0-1.336,0.179-1.723,0.536c-0.388,0.357-0.602,0.904-0.642,1.641l5.818,0.006v1.635
	h-5.832c0.004,0.817,0.189,1.404,0.554,1.762s0.973,0.536,1.825,0.536h3.453v1.635h-3.555c-0.785,0-1.401-0.063-1.85-0.188
	c-0.449-0.125-0.87-0.337-1.265-0.635c-0.513-0.383-0.897-0.883-1.153-1.497c-0.256-0.615-0.384-1.351-0.384-2.206
	c0-1.66,0.383-2.885,1.149-3.674c0.766-0.79,1.954-1.185,3.563-1.185h3.494V6.94H76.776z"/>
<path fill="#FFFFFF" d="M82.073,5.306h5.179c1.207,0,2.091,0.228,2.654,0.683c0.563,0.456,0.844,1.169,0.844,2.139
	c0,0.72-0.173,1.308-0.521,1.763c-0.347,0.455-0.847,0.749-1.5,0.881l2.498,3.92h-2.368L86.653,11h-2.477v3.69h-2.103V5.306z
	 M86.755,6.979h-2.579v2.362h2.579c0.699,0,1.184-0.09,1.456-0.269c0.272-0.179,0.408-0.485,0.408-0.919
	c0-0.431-0.132-0.733-0.398-0.91C87.957,7.066,87.467,6.979,86.755,6.979z"/>
<path fill="#FFFFFF" d="M96.649,6.908c-0.871,0-1.498,0.26-1.881,0.778c-0.383,0.52-0.575,1.373-0.575,2.561
	c0,1.03,0.184,1.756,0.551,2.177c0.368,0.422,1.002,0.632,1.905,0.632h3.457v1.635h-3.559c-0.785,0-1.402-0.063-1.851-0.188
	c-0.449-0.125-0.871-0.337-1.266-0.635c-0.512-0.383-0.897-0.883-1.153-1.497c-0.256-0.615-0.384-1.351-0.384-2.206
	c0-1.66,0.383-2.885,1.15-3.674c0.767-0.79,1.955-1.185,3.566-1.185h3.498v1.603H96.649z"/>
<rect x="101.665" y="5.306" fill="#FFFFFF" width="2.198" height="9.385"/>
<path fill="#FFFFFF" d="M108.811,5.306h2.232l4.267,9.385h-2.341l-0.919-2.234h-4.349l-0.892,2.234h-2.231L108.811,5.306z
	 M109.845,7.17l-1.463,3.613h2.98L109.845,7.17z"/>
<path fill="#FFFFFF" d="M119.978,14.69c-0.935,0-1.628-0.073-2.082-0.22c-0.454-0.147-0.859-0.401-1.218-0.764
	c-0.331-0.323-0.565-0.689-0.701-1.098c-0.136-0.409-0.204-0.983-0.204-1.724v-5.58h2.103v5.516c0,0.55,0.026,0.936,0.078,1.159
	c0.053,0.224,0.142,0.403,0.27,0.539c0.199,0.222,0.444,0.379,0.734,0.473s0.692,0.141,1.204,0.141h2.478v1.558H119.978z"/>
<path fill="#FFFFFF" d="M130.183,6.908c-0.871,0-1.498,0.26-1.882,0.778c-0.383,0.52-0.575,1.373-0.575,2.561
	c0,1.03,0.184,1.756,0.552,2.177c0.367,0.422,1.002,0.632,1.905,0.632h3.457v1.635h-3.56c-0.784,0-1.401-0.063-1.851-0.188
	c-0.449-0.125-0.871-0.337-1.266-0.635c-0.513-0.383-0.897-0.883-1.153-1.497c-0.257-0.615-0.385-1.351-0.385-2.206
	c0-1.66,0.384-2.885,1.15-3.674c0.767-0.79,1.955-1.185,3.565-1.185h3.498v1.603H130.183z"/>
<path fill="#FFFFFF" d="M139.151,14.69c-0.935,0-1.629-0.073-2.082-0.22c-0.454-0.147-0.859-0.401-1.218-0.764
	c-0.332-0.323-0.565-0.689-0.701-1.098c-0.136-0.409-0.204-0.983-0.204-1.724v-5.58h2.103v5.516c0,0.55,0.026,0.936,0.078,1.159
	c0.053,0.224,0.142,0.403,0.269,0.539c0.2,0.222,0.445,0.379,0.735,0.473s0.691,0.141,1.204,0.141h2.478v1.558H139.151z"/>
<path fill="#FFFFFF" d="M147.056,6.94c-0.761,0-1.335,0.179-1.723,0.536s-0.602,0.904-0.643,1.641l5.818,0.006v1.635h-5.832
	c0.005,0.817,0.189,1.404,0.554,1.762c0.365,0.357,0.974,0.536,1.825,0.536h3.453v1.635h-3.555c-0.784,0-1.401-0.063-1.851-0.188
	c-0.448-0.125-0.87-0.337-1.265-0.635c-0.512-0.383-0.896-0.883-1.152-1.497c-0.257-0.615-0.385-1.351-0.385-2.206
	c0-1.66,0.384-2.885,1.149-3.674c0.767-0.79,1.954-1.185,3.563-1.185h3.494V6.94H147.056z"/>
<path fill="#FFFFFF" d="M155.218,5.306h2.232l4.267,9.385h-2.341l-0.919-2.234h-4.349l-0.891,2.234h-2.232L155.218,5.306z
	 M156.252,7.17l-1.463,3.613h2.98L156.252,7.17z"/>
<polygon fill="#FFFFFF" points="162.418,5.306 165.079,5.306 169.175,12.048 169.073,5.306 171.224,5.306 171.224,14.69 
	168.78,14.69 164.479,7.591 164.575,14.69 162.418,14.69 "/>
<rect x="173.271" y="5.306" fill="#FFFFFF" width="2.198" height="9.385"/>
<polygon fill="#FFFFFF" points="177.552,5.306 180.213,5.306 184.31,12.048 184.207,5.306 186.357,5.306 186.357,14.69 
	183.915,14.69 179.614,7.591 179.709,14.69 177.552,14.69 "/>
<path fill="#FFFFFF" d="M192.025,10.783v-1.66H197v5.567h-4.525c-0.835,0-1.476-0.063-1.922-0.191
	c-0.447-0.128-0.866-0.339-1.256-0.632c-0.513-0.383-0.897-0.883-1.153-1.497c-0.257-0.615-0.385-1.351-0.385-2.206
	c0-1.655,0.385-2.879,1.153-3.671c0.77-0.792,1.957-1.188,3.563-1.188H197v1.615h-4.525c-0.825,0-1.428,0.251-1.807,0.753
	c-0.379,0.503-0.568,1.303-0.568,2.4c0,1.026,0.188,1.769,0.565,2.229c0.376,0.46,0.979,0.689,1.81,0.689h2.368v-2.209H192.025z"/>
</svg>
